<?xml version="1.0" standalone="no"?>
<!DOCTYPE svg PUBLIC "-//W3C//DTD SVG 20010904//EN"
 "http://www.w3.org/TR/2001/REC-SVG-20010904/DTD/svg10.dtd">
<svg version="1.0" xmlns="http://www.w3.org/2000/svg"
 width="600.000000pt" height="600.000000pt" viewBox="0 0 600.000000 600.000000"
 preserveAspectRatio="xMidYMid meet">
<metadata>
Created by potrace 1.14, written by Peter Selinger 2001-2017
</metadata>
<g transform="translate(0.000000,600.000000) scale(0.100000,-0.100000)"
fill="#000000" stroke="none">
<path d="M2980 5986 c-5 -7 -6 -17 -2 -21 4 -5 1 -5 -5 -1 -7 4 -13 2 -13 -4
0 -6 -4 -8 -10 -5 -5 3 -10 -1 -10 -9 0 -9 -5 -16 -11 -16 -5 0 -7 5 -3 12 4
7 3 8 -5 4 -6 -4 -9 -12 -6 -17 4 -5 -1 -12 -10 -15 -9 -4 -14 -13 -11 -20 3
-8 2 -13 -2 -13 -25 4 -42 -2 -36 -13 5 -8 2 -9 -10 -5 -14 6 -17 3 -12 -8 3
-9 2 -13 -4 -10 -6 3 -10 1 -10 -4 0 -6 -6 -11 -14 -11 -8 0 -16 -7 -20 -15
-3 -8 -12 -12 -21 -9 -11 5 -14 2 -9 -12 4 -11 4 -16 -1 -12 -11 10 -47 -11
-40 -22 3 -6 -1 -7 -9 -4 -9 3 -16 1 -16 -5 0 -6 -3 -10 -7 -9 -13 3 -67 -26
-76 -39 -5 -8 -12 -11 -18 -8 -5 4 -9 1 -9 -5 0 -6 -4 -8 -10 -5 -5 3 -10 1
-10 -5 0 -6 -4 -8 -10 -5 -5 3 -10 1 -10 -5 0 -6 -4 -9 -9 -6 -12 8 -83 -28
-74 -38 4 -4 0 -4 -10 0 -9 3 -24 1 -32 -6 -8 -7 -15 -9 -15 -4 0 5 -7 0 -15
-10 -9 -12 -15 -15 -15 -7 0 11 -3 11 -15 1 -8 -6 -18 -9 -23 -6 -5 3 -22 -3
-39 -14 -24 -14 -34 -16 -43 -7 -10 9 -11 9 -5 -2 6 -11 4 -13 -8 -8 -9 3 -19
2 -22 -3 -4 -6 -11 -10 -16 -10 -6 0 -7 6 -3 13 5 8 2 7 -9 -2 -17 -13 -36
-18 -104 -26 -18 -2 -41 -8 -50 -13 -10 -5 -27 -6 -38 -2 -11 4 -28 3 -37 -2
-13 -6 -18 -5 -18 4 0 10 -3 9 -9 -1 -6 -9 -24 -14 -51 -13 -30 1 -39 -1 -34
-11 5 -8 2 -8 -9 2 -9 7 -24 11 -32 7 -8 -3 -15 0 -15 7 0 9 -2 9 -8 0 -4 -7
-16 -11 -27 -9 -11 2 -23 -2 -27 -8 -6 -8 -11 -6 -18 4 -8 12 -10 12 -10 1 0
-11 -3 -11 -15 -1 -12 10 -15 10 -15 0 0 -9 -4 -9 -12 -2 -7 5 -47 10 -88 10
-101 0 -102 0 -94 14 5 7 3 8 -7 3 -17 -11 -50 -12 -67 -1 -7 4 -12 2 -12 -5
0 -8 -4 -8 -15 1 -12 10 -15 10 -15 -1 0 -8 -6 -5 -15 7 -8 10 -15 14 -15 8 0
-13 -58 -6 -66 8 -3 5 -12 4 -20 -3 -9 -7 -14 -8 -14 -1 0 6 -15 9 -34 8 -28
-3 -33 0 -28 13 5 14 4 14 -13 1 -14 -12 -19 -12 -23 -2 -3 10 -7 10 -20 0
-13 -11 -14 -11 -7 1 6 11 4 13 -7 8 -9 -3 -21 0 -27 6 -6 6 -11 7 -11 3 0 -5
-8 -2 -17 5 -14 12 -15 12 -9 1 7 -12 4 -12 -14 -2 -12 6 -28 9 -36 6 -8 -3
-12 -2 -9 3 3 5 1 12 -4 15 -5 4 -12 2 -16 -4 -4 -6 -14 -5 -28 4 -12 8 -30
12 -40 11 -9 -2 -17 1 -17 6 0 6 -4 8 -9 4 -5 -3 -17 2 -25 11 -9 8 -16 11
-16 5 0 -6 -5 -10 -12 -9 -12 3 -14 -3 -17 -43 -1 -12 -5 -17 -13 -13 -7 5 -8
3 -2 -7 11 -19 17 -62 7 -56 -5 3 -9 -8 -9 -24 -1 -16 3 -29 10 -29 6 0 5 -4
-3 -9 -8 -5 -16 -26 -17 -48 -2 -21 -5 -49 -7 -63 -2 -14 1 -31 6 -37 6 -9 5
-13 -3 -13 -7 0 -10 -7 -7 -15 4 -8 1 -17 -5 -21 -7 -4 -6 -9 3 -15 8 -5 10
-9 4 -9 -5 0 -10 -10 -11 -22 0 -13 -3 -35 -7 -50 -4 -18 -2 -28 6 -28 8 0 7
-3 -2 -9 -9 -6 -10 -11 -2 -15 6 -4 8 -13 4 -19 -11 -19 -12 -57 -1 -57 7 0 7
-4 -1 -13 -6 -8 -8 -17 -4 -20 3 -4 2 -7 -4 -7 -6 0 -8 -12 -5 -26 4 -21 2
-25 -9 -19 -11 7 -12 6 -3 -6 14 -18 16 -82 3 -73 -6 3 -5 -3 2 -14 10 -16 10
-24 1 -34 -9 -11 -9 -18 1 -28 10 -10 9 -11 -2 -5 -11 6 -13 4 -8 -8 4 -10 1
-17 -6 -17 -9 0 -9 -2 1 -9 8 -5 11 -19 8 -36 -3 -16 0 -36 7 -44 8 -9 8 -12
1 -8 -14 8 -13 -51 0 -72 6 -9 5 -12 -1 -8 -13 8 -12 -52 1 -72 6 -9 5 -12 -1
-8 -13 8 -12 -52 1 -72 6 -9 5 -12 -1 -8 -14 9 -12 -56 2 -65 7 -5 6 -8 -1 -8
-6 0 -11 -11 -11 -25 0 -14 5 -25 11 -25 8 0 8 -3 0 -8 -12 -8 -13 -81 0 -101
5 -8 4 -16 -5 -22 -10 -6 -10 -9 -2 -9 8 0 11 -11 9 -30 -2 -16 2 -31 8 -34 7
-3 7 -5 -1 -5 -9 -1 -11 -11 -6 -32 4 -21 1 -34 -8 -40 -12 -7 -12 -9 0 -9 8
0 11 -6 7 -16 -3 -8 -2 -13 3 -10 13 8 20 -28 9 -48 -6 -10 -5 -16 2 -16 6 0
8 -5 4 -12 -11 -17 -13 -48 -3 -48 10 0 18 -50 8 -56 -5 -3 -5 -13 0 -22 4 -9
6 -23 3 -31 -2 -8 0 -11 6 -7 11 7 10 -19 -1 -30 -4 -4 -2 -13 4 -21 9 -10 8
-13 -2 -13 -9 0 -10 -3 -3 -8 14 -10 27 -45 13 -36 -8 5 -8 1 0 -13 6 -11 8
-23 4 -26 -3 -3 -2 -14 3 -24 7 -17 12 -58 16 -130 1 -18 6 -29 11 -26 6 4 8
-3 5 -15 -4 -12 -2 -24 2 -27 5 -3 7 -16 5 -30 -1 -14 1 -25 5 -25 4 0 6 -10
5 -22 -1 -13 5 -32 14 -42 9 -11 10 -16 4 -12 -7 4 -13 2 -13 -3 0 -6 5 -11
12 -11 6 0 9 -3 5 -6 -3 -3 -2 -17 4 -31 7 -18 6 -22 -4 -17 -6 4 -3 -3 8 -16
11 -13 14 -20 6 -15 -10 6 -11 2 -6 -16 4 -13 13 -27 19 -31 8 -6 7 -8 -1 -8
-20 0 -15 -20 5 -21 11 0 12 -2 4 -6 -10 -4 -10 -8 0 -21 9 -11 9 -14 1 -9 -8
5 -8 -1 2 -19 8 -15 12 -31 9 -36 -3 -4 -1 -8 5 -8 5 0 8 -9 6 -20 -2 -11 0
-22 5 -25 5 -3 6 -13 3 -22 -4 -11 -3 -14 5 -9 7 4 12 1 12 -9 0 -10 -5 -13
-12 -9 -7 4 -5 -2 5 -13 11 -12 15 -27 11 -38 -5 -13 -4 -16 4 -11 8 5 12 -2
12 -22 0 -15 9 -46 19 -68 12 -23 16 -43 10 -48 -5 -6 2 -23 18 -45 15 -19 20
-31 12 -26 -12 8 -12 6 0 -8 7 -9 10 -17 5 -17 -5 0 -3 -4 5 -9 7 -5 13 -20
13 -35 0 -14 5 -26 10 -26 6 0 7 -7 4 -15 -3 -9 1 -18 9 -21 8 -4 13 -9 10
-13 -2 -4 2 -20 10 -35 8 -14 11 -24 6 -22 -4 3 -8 -1 -8 -9 0 -8 3 -12 7 -10
8 5 30 -39 30 -60 0 -8 5 -15 11 -15 5 0 7 -4 4 -10 -3 -5 -2 -10 4 -10 5 0 8
-9 6 -20 -2 -11 0 -18 6 -15 5 4 9 -5 9 -18 0 -14 6 -30 14 -36 8 -7 13 -20
11 -29 -1 -9 7 -22 19 -29 13 -8 16 -12 7 -13 -11 0 -9 -4 5 -14 10 -8 16 -18
11 -22 -4 -4 3 -19 15 -32 13 -14 16 -21 8 -17 -13 8 -13 7 0 -11 8 -10 20
-22 25 -26 6 -4 6 -8 1 -8 -5 0 -1 -10 10 -22 10 -12 13 -18 6 -14 -11 7 -11
4 0 -13 7 -12 16 -21 20 -21 5 0 8 -5 8 -11 0 -5 -5 -7 -12 -3 -7 4 -8 3 -4
-4 4 -7 15 -12 24 -12 13 0 14 -2 4 -9 -11 -7 -10 -10 3 -15 9 -3 15 -12 13
-18 -3 -7 1 -19 9 -26 7 -8 10 -18 7 -24 -4 -6 -2 -8 3 -5 13 8 26 -20 16 -35
-3 -7 -1 -8 5 -4 7 4 12 1 12 -8 0 -9 5 -16 11 -16 6 0 8 -7 5 -16 -3 -8 -2
-12 4 -9 5 3 12 -6 16 -20 3 -14 12 -25 20 -25 7 0 11 -6 8 -13 -2 -7 5 -23
16 -35 11 -12 17 -22 13 -22 -4 0 0 -7 10 -14 10 -8 19 -23 20 -34 0 -11 5
-18 9 -16 4 3 8 -2 8 -10 0 -9 5 -16 10 -16 6 0 10 -7 10 -15 0 -8 5 -15 10
-15 6 0 10 -7 10 -15 0 -8 5 -15 12 -15 6 0 8 -3 5 -7 -4 -3 2 -13 13 -20 11
-8 18 -18 16 -22 -3 -4 4 -14 15 -21 10 -8 19 -23 19 -33 0 -10 4 -16 8 -13 5
3 17 -9 27 -27 10 -18 24 -36 32 -40 7 -4 13 -15 13 -22 0 -8 5 -15 12 -15 6
0 9 -3 6 -6 -4 -3 7 -19 24 -34 20 -19 28 -35 24 -46 -4 -12 -2 -15 9 -10 16
6 39 -26 27 -39 -4 -5 -2 -5 4 -2 7 4 14 -2 17 -13 3 -11 15 -24 27 -28 12 -4
21 -11 21 -15 -3 -21 0 -27 14 -27 8 0 15 -7 15 -16 0 -8 4 -12 10 -9 5 3 10
-1 10 -10 0 -19 25 -47 34 -38 3 4 6 -1 6 -10 0 -9 18 -31 40 -48 22 -18 40
-38 40 -46 0 -7 4 -13 8 -13 5 0 15 -11 22 -25 10 -18 16 -22 22 -13 6 10 8
10 8 0 0 -17 46 -63 55 -54 4 4 6 2 5 -3 -5 -21 0 -36 10 -30 6 3 10 1 10 -5
0 -13 108 -120 121 -120 4 0 11 -10 14 -21 6 -17 9 -19 16 -8 7 11 9 11 9 1 0
-8 20 -34 46 -58 25 -24 42 -49 38 -55 -4 -7 2 -6 17 1 13 7 21 10 17 6 -8 -9
47 -66 63 -66 7 0 10 -3 6 -6 -8 -8 18 -34 33 -34 6 0 9 -4 6 -9 -3 -5 1 -12
10 -15 10 -4 13 -2 8 6 -4 7 -3 8 4 4 7 -4 12 -14 12 -22 0 -8 4 -14 8 -14 16
0 52 -37 44 -44 -4 -4 -2 -7 3 -5 18 4 45 -13 45 -28 0 -8 4 -12 9 -9 5 3 23
-8 41 -24 18 -16 37 -27 43 -23 6 3 7 1 3 -5 -4 -7 -2 -12 4 -12 6 0 8 -4 5
-10 -3 -5 3 -10 15 -10 14 0 19 -4 14 -12 -5 -8 -2 -9 10 -5 10 4 15 3 11 -3
-3 -6 -1 -10 4 -10 6 0 11 -7 11 -16 0 -8 4 -13 9 -9 6 3 21 -6 34 -21 17 -18
27 -22 32 -14 5 8 11 6 21 -7 9 -12 13 -13 14 -5 0 7 4 11 9 8 5 -3 21 6 35
19 15 14 32 23 37 19 5 -3 8 0 7 7 -2 7 7 18 19 24 13 7 32 22 43 35 11 13 20
20 20 16 0 -4 18 11 39 33 25 25 41 36 44 28 4 -9 6 -9 6 1 1 7 5 10 11 7 6
-3 7 1 4 9 -4 10 -1 16 9 16 8 0 22 10 31 22 9 13 14 16 11 8 -4 -8 1 -6 10 5
9 11 21 19 27 17 6 -2 5 5 -3 14 -8 10 -9 15 -2 11 6 -4 14 -3 18 3 4 6 11 8
16 5 5 -4 9 -1 9 5 0 6 5 8 10 5 6 -4 10 -3 9 2 -3 18 1 34 9 30 4 -3 13 1 20
9 7 8 9 14 5 14 -4 1 10 9 32 20 22 11 34 19 27 20 -7 0 -10 5 -7 10 4 6 11 8
16 5 5 -4 12 1 15 9 3 9 13 16 21 16 8 0 11 5 8 10 -3 6 1 13 10 16 9 4 14 13
11 20 -3 8 0 11 10 7 7 -3 14 0 14 6 0 6 7 11 15 11 9 0 12 6 8 17 -4 11 -3
14 5 9 7 -4 12 -3 12 3 0 5 9 12 19 16 13 4 18 12 14 21 -3 8 -2 14 3 13 20
-3 47 1 41 8 -9 9 13 34 24 27 5 -3 6 2 3 10 -4 9 -1 16 6 16 7 0 10 7 6 16
-5 14 -4 15 9 4 12 -10 15 -10 15 0 0 6 13 24 30 40 16 15 26 31 22 35 -4 5 1
5 11 2 11 -4 17 -1 17 8 0 8 5 15 11 15 5 0 8 4 5 9 -3 5 5 12 19 15 14 4 24
10 24 14 -3 17 2 33 9 29 4 -3 16 5 27 16 11 11 13 16 5 12 -8 -4 -6 1 5 12
11 12 25 20 30 19 6 0 9 5 8 12 -2 6 1 12 6 12 9 0 24 38 22 54 -1 5 4 4 13
-3 11 -9 16 -9 22 0 5 8 3 10 -7 5 -8 -4 -5 0 5 8 11 9 16 16 11 16 -5 0 7 12
26 26 19 15 25 24 14 20 -15 -5 -14 -1 8 17 15 14 27 29 27 36 0 6 7 11 16 11
8 0 13 4 10 9 -4 5 -3 11 1 13 13 5 63 76 63 87 0 6 7 11 15 11 8 0 15 7 15
15 0 8 5 15 10 15 6 0 10 6 10 14 0 8 9 22 21 30 12 8 18 19 14 25 -3 6 -1 11
5 11 6 0 8 4 5 10 -4 6 1 7 11 3 11 -4 15 -2 11 4 -3 5 3 19 13 31 11 12 20
26 20 32 0 6 5 8 12 4 6 -4 8 -3 4 4 -3 6 1 18 10 26 8 9 13 16 9 16 -3 0 0 6
7 14 7 8 16 12 20 9 4 -2 5 2 3 9 -3 8 3 23 14 35 11 11 17 24 14 27 -4 3 -1
6 5 6 7 0 11 6 9 13 -1 6 4 11 11 9 8 -1 11 2 8 7 -4 5 4 20 16 32 13 12 17
19 11 15 -8 -4 -6 5 4 23 10 16 21 27 25 25 4 -3 5 5 3 16 -2 11 0 18 6 15 5
-4 9 1 9 10 0 9 4 14 9 10 6 -3 8 4 6 15 -2 13 1 20 11 20 8 0 12 4 9 10 -3 5
-1 10 5 10 6 0 8 5 5 11 -4 5 1 19 10 29 9 10 14 24 9 31 -4 7 -3 10 3 6 10
-6 18 3 22 28 2 6 8 13 16 17 7 4 16 24 19 43 5 24 12 35 24 35 15 0 15 2 2
10 -8 5 -10 10 -5 10 6 0 16 9 23 21 11 17 11 20 0 13 -7 -4 -5 2 5 13 9 11
14 23 10 26 -3 4 -2 7 3 7 5 0 10 10 11 22 1 12 9 25 17 30 9 5 13 15 9 25 -4
10 -2 14 4 10 7 -5 9 1 5 15 -3 13 -1 19 5 15 6 -4 14 0 17 9 4 10 2 13 -7 8
-6 -4 -3 2 7 14 11 12 15 22 11 22 -5 0 -4 5 3 12 7 7 12 20 12 31 0 10 4 16
9 12 6 -3 8 3 6 14 -2 11 3 22 12 25 8 4 13 13 9 21 -3 8 0 15 6 15 6 0 5 6
-3 17 -8 9 -9 14 -2 10 11 -7 30 28 25 47 -2 4 2 14 8 20 5 7 7 16 3 19 -3 4
-1 7 5 7 7 0 12 9 12 20 0 11 6 20 13 20 9 0 9 2 -1 9 -11 7 -11 11 0 22 15
16 21 36 20 62 0 9 3 15 9 12 5 -4 9 6 9 20 0 14 3 24 8 22 4 -3 8 11 10 30 1
19 5 40 9 47 4 6 8 23 9 38 1 15 7 34 14 43 7 8 9 15 6 15 -4 0 0 7 9 16 12
12 13 19 4 30 -6 8 -7 14 -2 14 5 0 10 12 11 28 1 15 7 29 13 30 6 3 6 9 -2
18 -9 11 -9 14 0 14 7 0 11 6 10 13 -3 23 1 38 9 34 4 -3 7 9 6 26 0 18 5 38
10 46 8 10 7 15 -2 19 -10 3 -9 7 4 17 12 8 17 26 17 54 0 23 3 44 8 47 5 3 9
10 9 15 0 6 -6 7 -12 3 -10 -6 -10 -5 -1 7 7 9 13 30 15 47 1 18 5 32 8 32 4
0 6 20 5 44 0 26 3 42 9 39 5 -4 6 5 2 21 -4 18 -2 26 6 26 9 0 8 3 -2 10 -10
6 -11 10 -3 10 9 0 12 13 9 40 -2 26 0 38 7 33 6 -4 8 2 5 15 -4 12 -1 22 4
22 6 0 4 8 -3 17 -12 15 -12 16 1 8 13 -8 13 -7 1 9 -10 12 -11 20 -4 24 13 8
21 98 10 108 -4 4 0 16 9 26 12 13 14 21 6 31 -6 7 -7 19 -3 26 5 7 7 26 5 42
-2 16 0 29 4 29 10 0 8 62 -3 79 -5 10 -4 12 4 7 8 -6 10 0 5 18 -4 18 -2 26
7 26 9 0 10 3 3 8 -14 10 -15 84 0 75 6 -4 5 1 -3 11 -9 11 -11 20 -5 24 12 9
12 112 0 131 -6 9 -5 12 2 7 14 -8 12 34 -2 53 -8 11 -8 13 0 8 7 -4 11 12 11
48 0 36 -4 52 -11 48 -6 -4 -5 0 2 9 14 17 13 39 -3 50 -6 5 -6 8 2 8 13 0 13
67 -1 89 -6 9 -5 12 1 8 6 -4 10 8 10 28 0 19 -5 35 -11 35 -6 0 -4 5 4 10 13
9 13 11 0 20 -13 9 -13 11 0 20 8 5 10 10 4 10 -15 0 -16 111 -1 129 9 11 9
13 0 8 -8 -5 -12 2 -12 20 -1 40 -6 67 -14 79 -3 6 -3 14 0 18 10 9 11 46 2
46 -4 0 -4 14 1 30 6 20 5 30 -2 30 -6 0 -8 15 -6 35 2 20 0 35 -7 35 -5 0 -5
4 2 8 10 6 9 13 -1 33 -15 29 -17 59 -3 59 5 0 4 6 -2 14 -8 10 -9 16 -1 21 7
4 7 13 -1 27 -6 11 -12 39 -14 62 -2 22 -6 58 -10 80 -5 30 -4 37 7 31 10 -6
10 -5 1 5 -6 7 -9 19 -6 27 3 8 0 13 -8 11 -8 -2 -13 4 -11 12 3 12 1 13 -9 3
-7 -7 -24 -13 -37 -13 -13 0 -21 -4 -18 -9 4 -5 -3 -7 -14 -4 -13 3 -20 0 -20
-8 0 -11 -2 -11 -10 1 -5 8 -10 10 -10 4 0 -6 -11 -10 -25 -9 -14 2 -23 -1
-19 -6 5 -8 -24 -13 -78 -13 -9 0 -15 -3 -12 -8 3 -5 -8 -7 -24 -6 -17 1 -37
-4 -46 -11 -9 -7 -16 -10 -16 -5 0 4 -5 3 -12 -4 -7 -7 -17 -8 -30 -1 -11 6
-18 6 -18 0 0 -5 -12 -8 -26 -5 -14 3 -23 1 -21 -3 3 -4 -13 -9 -35 -9 -22 -1
-44 -8 -49 -15 -5 -8 -9 -9 -9 -4 0 6 -9 11 -20 11 -11 0 -20 -4 -20 -9 0 -5
-7 -4 -15 3 -8 7 -15 8 -15 3 0 -6 -11 -9 -25 -8 -14 2 -25 0 -25 -3 0 -4 -11
-7 -25 -7 -14 0 -25 3 -25 8 0 4 -5 7 -11 7 -6 0 -8 -7 -5 -16 5 -14 4 -15 -8
-5 -8 7 -23 11 -33 9 -10 -1 -24 1 -30 5 -8 5 -13 3 -13 -3 0 -7 -7 -9 -16 -6
-8 3 -12 2 -9 -4 3 -6 2 -10 -4 -10 -5 0 -13 5 -16 10 -5 8 -11 7 -21 -1 -11
-9 -18 -8 -31 2 -10 8 -14 9 -10 2 5 -8 0 -11 -13 -10 -11 1 -20 4 -20 8 0 3
-38 6 -84 6 -46 0 -89 4 -97 9 -18 11 -39 12 -60 2 -9 -4 -22 -2 -29 5 -10 9
-11 9 -6 0 5 -8 -2 -8 -20 2 -15 8 -31 12 -36 9 -4 -3 -8 0 -8 7 0 8 -4 8 -15
-1 -8 -7 -15 -8 -15 -3 0 6 -11 9 -25 8 -14 -2 -25 1 -25 5 0 5 -9 7 -20 5
-11 -2 -20 2 -20 8 0 7 -4 6 -10 -3 -6 -10 -10 -11 -10 -2 0 6 -9 12 -20 12
-11 0 -20 6 -20 13 0 7 -3 8 -8 2 -9 -13 -35 -18 -27 -5 5 8 -30 16 -57 11 -5
0 -8 6 -8 15 0 8 -5 12 -10 9 -6 -4 -18 -1 -27 7 -14 11 -16 11 -8 -2 6 -11 3
-10 -12 3 -11 9 -23 14 -26 10 -4 -3 -7 -1 -7 6 0 7 -4 10 -9 6 -5 -3 -15 1
-23 8 -7 8 -19 12 -26 9 -6 -2 -12 1 -12 7 0 6 -7 8 -15 5 -8 -4 -15 -1 -15 5
0 6 -7 11 -15 11 -8 0 -15 6 -15 13 0 8 -4 7 -10 -3 -9 -14 -14 -7 -11 13 1 5
-4 7 -11 5 -7 -3 -21 4 -32 13 -10 10 -23 16 -28 13 -4 -3 -8 0 -8 6 0 6 -4 9
-9 6 -5 -3 -11 1 -15 9 -3 8 -12 12 -21 9 -9 -4 -15 -3 -14 2 3 20 -2 35 -10
29 -5 -3 -12 -1 -16 5 -4 6 -10 8 -15 5 -4 -3 -11 2 -14 11 -3 8 -10 13 -15 9
-5 -3 -13 0 -17 6 -4 8 -3 9 4 5 8 -5 10 -2 6 8 -3 9 -9 14 -13 12 -4 -3 -20
4 -37 15 -16 10 -25 19 -21 19 5 0 2 7 -7 15 -8 8 -19 15 -25 15 -5 0 -13 9
-16 20 -4 11 -11 18 -16 15 -5 -4 -9 0 -9 8 0 19 -36 28 -50 13z m-1980 -3326
c0 -5 -2 -10 -4 -10 -3 0 -8 5 -11 10 -3 6 -1 10 4 10 6 0 11 -4 11 -10z m885
-1598 c-3 -3 -11 0 -18 7 -9 10 -8 11 6 5 10 -3 15 -9 12 -12z"/>
</g>
</svg>
